<svg width="24" height="24" viewBox="0 0 24 24" fill="none" xmlns="http://www.w3.org/2000/svg">
<path d="M12 3C13.808 3 15.4803 3.35156 17.0167 4.05469C18.5532 4.75781 19.7679 5.71391 20.6607 6.92301C21.5536 8.13209 22 9.45088 22 10.8795C22 12.308 21.5536 13.6287 20.6607 14.8415C19.7679 16.0543 18.555 17.0123 17.0223 17.7154C15.4896 18.4185 13.8155 18.7701 12 18.7701C11.4271 18.7701 10.8355 18.7291 10.2255 18.6473C7.57663 20.4851 6.16666 21.4152 5.99552 21.4375C5.9137 21.4673 5.83558 21.4636 5.76118 21.4263C5.73139 21.404 5.70906 21.3742 5.69419 21.337C5.67931 21.2998 5.67186 21.2664 5.67186 21.2366V21.192C5.71652 20.9018 6.05505 19.6927 6.6875 17.5647C5.25149 16.8505 4.11123 15.9037 3.26674 14.7243C2.42225 13.545 2 12.2634 2 10.8795C2 9.45088 2.44643 8.13209 3.33929 6.92301C4.23214 5.71391 5.4468 4.75781 6.98327 4.05469C8.51972 3.35156 10.192 3 12 3ZM6.93305 12.9665V9.54016H7.81472C7.93378 9.54016 8.05841 9.49739 8.1886 9.41182C8.31883 9.32625 8.38393 9.20908 8.38393 9.06027C8.38393 8.91145 8.3244 8.78683 8.20537 8.68638C8.0863 8.58594 7.97099 8.53572 7.85938 8.53572H4.95759C4.8311 8.53572 4.71205 8.57292 4.60044 8.64733C4.48884 8.72173 4.43303 8.84451 4.43303 9.01561C4.43303 9.18675 4.49256 9.31698 4.6116 9.40626C4.73065 9.49554 4.86458 9.54016 5.01339 9.54016H5.89507V12.9665C5.89507 13.1525 5.93973 13.305 6.02901 13.4241C6.11829 13.5431 6.24477 13.6027 6.40846 13.6027C6.57219 13.6027 6.70052 13.5357 6.79351 13.4018C6.88654 13.2678 6.93305 13.1228 6.93305 12.9665ZM11.7656 13.6027C12.0409 13.4985 12.1265 13.2344 12.0223 12.8103C11.9925 12.7135 11.7823 12.1351 11.3917 11.0748C11.0011 10.0145 10.776 9.40997 10.7165 9.26116C10.5156 8.77752 10.2403 8.53572 9.89063 8.53572C9.51114 8.53572 9.21727 8.77752 9.00892 9.26116C8.94939 9.38764 8.72246 10.0034 8.3281 11.1082C7.93378 12.2132 7.72915 12.7805 7.71427 12.8103C7.6622 12.8772 7.64918 13 7.67522 13.1786C7.70125 13.3572 7.78126 13.4799 7.91516 13.5469C8.06397 13.6138 8.20908 13.6213 8.35043 13.5692C8.49183 13.5171 8.58853 13.439 8.6406 13.3348L8.90848 12.5982H10.8505C10.9323 12.8661 10.9918 13.0409 11.029 13.1228C11.0662 13.1972 11.1071 13.2716 11.1518 13.346C11.1964 13.4204 11.2783 13.4929 11.3973 13.5636C11.5164 13.6343 11.6391 13.6473 11.7656 13.6027ZM14.7679 13.6027C14.9241 13.6027 15.0673 13.5543 15.1975 13.4576C15.3278 13.3609 15.3929 13.2306 15.3929 13.0669C15.3929 12.9033 15.3333 12.7749 15.2143 12.6819C15.0952 12.5889 14.9464 12.5424 14.7679 12.5424H13.529V9.17188C13.529 9.01561 13.4825 8.87054 13.3895 8.7366C13.2965 8.60267 13.1682 8.53572 13.0044 8.53572C12.8408 8.53572 12.7143 8.59525 12.625 8.71427C12.5357 8.83334 12.4911 8.98586 12.4911 9.17188V12.9665C12.4911 13.1525 12.5357 13.305 12.625 13.4241C12.7143 13.5431 12.8408 13.6027 13.0044 13.6027C13.0119 13.6027 13.0249 13.6008 13.0435 13.5971C13.0621 13.5934 13.0751 13.5915 13.0826 13.5915C13.09 13.5915 13.103 13.5934 13.1217 13.5971C13.1402 13.6008 13.1533 13.6027 13.1607 13.6027H14.7679ZM19.1652 13.5246C19.2917 13.4055 19.3549 13.2697 19.3549 13.1172C19.3549 12.9647 19.3065 12.8289 19.2098 12.7098C19.1652 12.6428 18.6964 12.0141 17.8036 10.8236C18.2351 10.3847 18.6704 9.94568 19.1094 9.5067C19.221 9.39509 19.2898 9.26301 19.3158 9.11049C19.3419 8.95797 19.2991 8.81472 19.1875 8.68082C19.061 8.56175 18.9252 8.51339 18.7801 8.53572C18.635 8.55805 18.4992 8.63245 18.3728 8.75893C18.3504 8.78126 18.2537 8.87981 18.0826 9.05466C17.9115 9.22956 17.6901 9.45463 17.4185 9.72992C17.147 10.0052 16.907 10.2507 16.6987 10.4665V9.17188C16.6987 9.01561 16.6522 8.87054 16.5591 8.7366C16.4661 8.60267 16.3378 8.53572 16.1741 8.53572C16.0104 8.53572 15.8839 8.59525 15.7946 8.71427C15.7053 8.83334 15.6607 8.98586 15.6607 9.17188V12.9665C15.6607 13.1525 15.7053 13.305 15.7946 13.4241C15.8839 13.5431 16.0104 13.6027 16.1741 13.6027C16.3378 13.6027 16.4661 13.5357 16.5591 13.4018C16.6522 13.2678 16.6987 13.1228 16.6987 12.9665V11.9509C16.7284 11.9211 16.7842 11.8635 16.8661 11.7779C16.9479 11.6923 17.0149 11.6235 17.0669 11.5714C17.558 12.2411 17.997 12.8326 18.3839 13.346C18.4881 13.4873 18.609 13.5785 18.7466 13.6194C18.8843 13.6603 19.0238 13.6287 19.1652 13.5246ZM9.20981 11.5937L9.89063 9.59598L10.5602 11.5937H9.20981Z" fill="black"/>
</svg>
