<svg width="24" height="24" viewBox="0 0 24 24" fill="none" xmlns="http://www.w3.org/2000/svg">
<path fill-rule="evenodd" clip-rule="evenodd" d="M11.9982 4.61867C14.4034 4.61867 14.6882 4.62922 15.6341 4.67141C16.5132 4.71009 16.9879 4.85778 17.3043 4.98085C17.7228 5.1426 18.0252 5.33951 18.3381 5.65247C18.6546 5.96893 18.848 6.26782 19.0097 6.68626C19.1328 7.00273 19.2805 7.48095 19.3192 8.35651C19.3614 9.30591 19.3719 9.59073 19.3719 11.9924C19.3719 14.3975 19.3614 14.6824 19.3192 15.6282C19.2805 16.5073 19.1328 16.982 19.0097 17.2985C18.848 17.7169 18.6511 18.0193 18.3381 18.3323C18.0217 18.6488 17.7228 18.8422 17.3043 19.0039C16.9879 19.127 16.5096 19.2747 15.6341 19.3133C14.6847 19.3555 14.3999 19.3661 11.9982 19.3661C9.59306 19.3661 9.30824 19.3555 8.36235 19.3133C7.48327 19.2747 7.00857 19.127 6.6921 19.0039C6.27366 18.8422 5.97126 18.6452 5.65831 18.3323C5.34184 18.0158 5.14844 17.7169 4.98669 17.2985C4.86362 16.982 4.71594 16.5038 4.67726 15.6282C4.63506 14.6788 4.62451 14.394 4.62451 11.9924C4.62451 9.58722 4.63506 9.3024 4.67726 8.35651C4.71594 7.47743 4.86362 7.00273 4.98669 6.68626C5.14844 6.26782 5.34536 5.96542 5.65831 5.65247C5.97478 5.336 6.27366 5.1426 6.6921 4.98085C7.00857 4.85778 7.48679 4.71009 8.36235 4.67141C9.30824 4.62922 9.59306 4.61867 11.9982 4.61867ZM11.9982 2.99765C9.55438 2.99765 9.24846 3.0082 8.28851 3.05039C7.33207 3.09259 6.67452 3.24731 6.10488 3.46884C5.51062 3.70091 5.00779 4.00683 4.50847 4.50966C4.00564 5.00898 3.69972 5.51181 3.46765 6.10255C3.24612 6.67571 3.0914 7.32975 3.0492 8.28618C3.00701 9.24965 2.99646 9.55557 2.99646 11.9994C2.99646 14.4432 3.00701 14.7492 3.0492 15.7091C3.0914 16.6656 3.24612 17.3231 3.46765 17.8927C3.69972 18.487 4.00564 18.9898 4.50847 19.4892C5.00779 19.9885 5.51062 20.2979 6.10136 20.5265C6.67452 20.748 7.32856 20.9027 8.28499 20.9449C9.24495 20.9871 9.55087 20.9977 11.9947 20.9977C14.4385 20.9977 14.7445 20.9871 15.7044 20.9449C16.6608 20.9027 17.3184 20.748 17.888 20.5265C18.4788 20.2979 18.9816 19.9885 19.4809 19.4892C19.9802 18.9898 20.2897 18.487 20.5182 17.8963C20.7398 17.3231 20.8945 16.6691 20.9367 15.7126C20.9789 14.7527 20.9894 14.4468 20.9894 12.0029C20.9894 9.55909 20.9789 9.25317 20.9367 8.29322C20.8945 7.33678 20.7398 6.67923 20.5182 6.10959C20.2967 5.51181 19.9908 5.00898 19.488 4.50966C18.9886 4.01035 18.4858 3.70091 17.8951 3.47235C17.3219 3.25082 16.6679 3.09611 15.7114 3.05391C14.748 3.0082 14.4421 2.99765 11.9982 2.99765ZM11.9982 7.37546C9.44539 7.37546 7.37429 9.44657 7.37429 11.9994C7.37429 14.5522 9.44539 16.6234 11.9982 16.6234C14.5511 16.6234 16.6222 14.5522 16.6222 11.9994C16.6222 9.44657 14.5511 7.37546 11.9982 7.37546ZM11.9982 14.9988C10.3421 14.9988 8.99882 13.6556 8.99882 11.9994C8.99882 10.3432 10.3421 8.99999 11.9982 8.99999C13.6544 8.99999 14.9976 10.3432 14.9976 11.9994C14.9976 13.6556 13.6544 14.9988 11.9982 14.9988ZM16.805 8.27208C17.3993 8.27208 17.8845 7.79035 17.8845 7.19257C17.8845 6.59832 17.3993 6.11306 16.805 6.11306C16.2108 6.11306 15.7255 6.5948 15.7255 7.19257C15.7255 7.78683 16.2073 8.27208 16.805 8.27208Z" fill="black"/>
</svg>
