<svg width="24" height="24" viewBox="0 0 24 24" fill="none" xmlns="http://www.w3.org/2000/svg">
<path d="M21.8008 7.99966C21.8008 7.99966 21.6055 6.62076 21.0039 6.01529C20.2422 5.21841 19.3906 5.21451 19 5.16763C16.2031 4.96451 12.0039 4.96451 12.0039 4.96451H11.9961C11.9961 4.96451 7.79688 4.96451 5 5.16763C4.60938 5.21451 3.75781 5.21841 2.99609 6.01529C2.39453 6.62076 2.20312 7.99966 2.20312 7.99966C2.20312 7.99966 2 9.62076 2 11.2379V12.7536C2 14.3708 2.19922 15.9919 2.19922 15.9919C2.19922 15.9919 2.39453 17.3708 2.99219 17.9762C3.75391 18.7731 4.75391 18.7458 5.19922 18.8317C6.80078 18.984 12 19.0309 12 19.0309C12 19.0309 16.2031 19.0231 19 18.8239C19.3906 18.777 20.2422 18.7731 21.0039 17.9762C21.6055 17.3708 21.8008 15.9919 21.8008 15.9919C21.8008 15.9919 22 14.3747 22 12.7536V11.2379C22 9.62076 21.8008 7.99966 21.8008 7.99966ZM9.93359 14.5934V8.97232L15.3359 11.7926L9.93359 14.5934Z" fill="black"/>
</svg>
