<svg width="131" height="20" viewBox="0 0 131 20" fill="none" xmlns="http://www.w3.org/2000/svg">
<g clip-path="url(#clip0_63_452)">
<path fill-rule="evenodd" clip-rule="evenodd" d="M14.8014 15.6707C15.0414 14.7233 15.0719 13.7804 14.8843 12.8508H14.9017C14.7883 12.2621 14.5788 11.722 14.269 11.2395C13.9592 10.757 13.5796 10.3364 13.1301 9.97344C12.5454 9.45994 11.8908 9.07481 11.1621 8.81806C10.4334 8.56131 9.72213 8.33997 9.02831 8.14962C8.80141 8.09208 8.46541 8.01239 8.01596 7.90615C7.5665 7.79991 7.10832 7.67154 6.64142 7.52103C6.17015 7.36609 5.75124 7.18017 5.37597 6.96326C5.00506 6.74635 4.77816 6.47632 4.70397 6.15316C4.60797 5.77247 4.67343 5.38291 4.90034 4.98451C5.12724 4.5861 5.44579 4.25409 5.85597 3.98849C5.5767 3.93094 5.24506 3.88668 4.86106 3.86012C4.47707 3.82913 4.0887 3.85569 3.69598 3.93094C3.84434 3.81585 4.07998 3.68747 4.39852 3.54582C4.7127 3.40416 5.08797 3.28907 5.51997 3.19168C5.9476 3.09429 6.40578 3.03674 6.89451 3.01904C7.38323 3.00133 7.86759 3.06773 8.35632 3.21824C8.84068 3.37317 9.29886 3.62992 9.73085 3.98849C10.1585 4.35148 10.5338 4.84285 10.8523 5.47145L14.2516 4.04604C14.1381 3.76273 13.9985 3.49712 13.8283 3.24923C13.6581 3.00575 13.4705 2.75786 13.2654 2.50996C12.6283 1.80611 11.8341 1.22621 10.8785 0.770252C10.3898 0.540062 9.86176 0.354139 9.29013 0.212483C8.7185 0.0708278 8.12505 0 7.50541 0C7.09087 0 6.68942 0.0398406 6.29669 0.115095C5.90397 0.19035 5.51997 0.305445 5.1447 0.455954C4.60361 0.664011 4.08434 0.934042 3.58689 1.26605C3.0938 1.60248 2.65744 2.00531 2.28217 2.47897C2.07272 2.70474 1.88944 2.94821 1.73235 3.20496C1.57526 3.46171 1.43999 3.74059 1.32654 4.04604C1.21308 4.32935 1.12581 4.63479 1.06036 4.95795C0.99054 5.2811 0.959995 5.6131 0.959995 5.95396C0.959995 6.40992 1.00799 6.83046 1.11272 7.22001C1.21308 7.60956 1.37017 7.98583 1.57526 8.3444C1.7629 8.66755 1.97672 8.95529 2.22108 9.21204C2.46544 9.46879 2.71853 9.70341 2.98035 9.91146C3.22035 10.0841 3.46471 10.2346 3.70907 10.3674C3.94907 10.5002 4.19343 10.6153 4.43779 10.7083C4.86543 10.8942 5.30179 11.058 5.74251 11.1908C6.18324 11.3236 6.61087 11.4387 7.02105 11.5317C7.34663 11.6248 7.70416 11.722 8.10509 11.831L8.10524 11.8311L8.10527 11.8311L8.15996 11.8459C8.57886 11.9566 8.99777 12.0983 9.40795 12.2576C9.81813 12.4214 10.189 12.6073 10.5163 12.8154C10.8436 13.0235 11.0792 13.2714 11.2188 13.5547C11.3585 13.838 11.3803 14.1656 11.2756 14.5241C11.1708 14.8871 10.8959 15.2944 10.4465 15.7503C10.6271 15.7827 10.822 15.8121 11.029 15.8433L11.1752 15.8654C11.437 15.9053 11.6988 15.923 11.9607 15.923C11.8298 16.0204 11.6334 16.1178 11.3716 16.224C11.1098 16.3302 10.7999 16.432 10.4465 16.5383C10.093 16.6445 9.70467 16.7242 9.2814 16.7818C8.8625 16.8349 8.42614 16.8482 7.97668 16.8083H7.9505C6.84651 16.7685 5.94324 16.4453 5.2407 15.8389C4.53816 15.2324 3.94471 14.5108 3.45598 13.6742L0 15.0686C0.431998 16.1133 1.02545 16.9987 1.78472 17.7202C2.53962 18.4418 3.40798 18.9907 4.38107 19.3714C5.45015 19.7919 6.58033 20 7.78032 20C9.33377 20 10.7476 19.6503 12.0218 18.9464C12.6937 18.5702 13.261 18.1009 13.7192 17.552C14.1774 16.9987 14.5396 16.3745 14.8014 15.6707ZM27.4951 19.7167H32.3824L24.266 10.0575L21.9926 11.1687L31.4006 0.314299H26.4304L20.3606 7.32182V0.314299H16.6254V19.7167H20.3606V13.05L21.1461 12.1381L27.4951 19.7167ZM48.5888 0.314299L42.0172 11.6556V19.7211H38.282V11.6556L31.6798 0.314299H36.0347L40.8085 8.54803V6.2417L44.2339 0.314299H48.5888ZM68.8665 19.7167L74.7094 0.314299H74.705H70.8302L67.2956 12.7933V15.8123L62.7444 0.314299H58.8389L59.9909 4.10359L57.5211 12.7933V15.8123L52.9699 0.314299H49.0645L54.9073 19.7123H59.092L61.396 12.1337L61.1429 7.86189L62.6615 12.9925L64.6818 19.7167H68.8665ZM79.1167 5.6131C80.1465 5.6131 81.0541 5.80345 81.8396 6.18415C82.625 6.56485 83.2839 7.07835 83.8206 7.72466C84.353 8.37096 84.7501 9.13236 85.0163 10.0044C85.2781 10.8765 85.409 11.8105 85.409 12.7977C85.409 13.7849 85.2781 14.7145 85.0163 15.591C84.7544 16.463 84.3617 17.2244 83.8381 17.8707C83.3145 18.517 82.6599 19.0261 81.8701 19.3935C81.0846 19.7654 80.1639 19.9513 79.1167 19.9513H78.8068C77.7945 19.9336 76.9043 19.7255 76.1407 19.3404C75.3727 18.9509 74.7356 18.4374 74.2294 17.7999C73.7232 17.1625 73.3436 16.4143 73.0905 15.5511C72.8374 14.6879 72.7109 13.7716 72.7109 12.8021C72.7109 11.8327 72.8418 10.8853 73.1036 10.0089C73.3654 9.13679 73.7625 8.37539 74.2992 7.72908C74.8316 7.08278 75.4861 6.56928 76.2672 6.18858C77.0439 5.80788 77.9559 5.61753 79.0076 5.61753H79.121L79.1167 5.6131ZM79.1167 16.6977C79.5268 16.6799 79.8977 16.5604 80.225 16.3435C80.5523 16.1266 80.8185 15.8389 81.0236 15.4892C81.2286 15.1394 81.3901 14.7278 81.4992 14.2629C81.6126 13.7981 81.6694 13.2979 81.6694 12.7667C81.6694 12.0629 81.5777 11.421 81.3901 10.8455C81.2025 10.2656 80.9232 9.80522 80.5479 9.46437C80.2294 9.18105 79.8759 8.96857 79.4788 8.83577C79.0861 8.70297 78.6716 8.64542 78.2439 8.66313C77.7552 8.68083 77.2883 8.76937 76.8389 8.91988C76.3894 9.07038 76.0054 9.28287 75.6869 9.54847C76.0229 9.49093 76.4243 9.46437 76.8956 9.46437C76.9872 9.46437 77.0876 9.46879 77.1923 9.47764C77.297 9.4865 77.393 9.49978 77.489 9.52191C77.1312 9.8849 76.8694 10.3497 76.7036 10.9163C76.5378 11.483 76.4505 12.1027 76.4505 12.7667C76.4505 13.2979 76.5029 13.7981 76.6032 14.2629C76.7036 14.7278 76.8607 15.135 77.0658 15.4892C77.2709 15.8389 77.5327 16.1266 77.8512 16.3435C78.1698 16.5604 78.545 16.6799 78.9727 16.6977H79.1123H79.1167ZM90.0693 12.3373L94.9304 19.7167L94.9348 19.7123H99.4293L95.0744 13.1031L92.321 12.3329H93.0235C94.2409 12.3329 95.2751 12.178 96.126 11.8637C96.9769 11.5494 97.6707 11.1155 98.2031 10.5666C98.7355 10.0177 99.1195 9.37583 99.3551 8.64542C99.5864 7.91501 99.7042 7.12262 99.7042 6.26826C99.7042 5.529 99.5776 4.80301 99.3245 4.09031C99.0715 3.3776 98.6831 2.74458 98.1595 2.18238C97.6315 1.62019 96.9769 1.16866 96.1915 0.8278C95.406 0.486941 94.4809 0.314299 93.4119 0.314299H86.0548V19.7167H89.7901V12.3373H90.0693ZM94.6773 8.80035C94.302 9.08809 93.8351 9.22975 93.2722 9.22975V9.23418H89.7901V4.30279L87.5428 3.44843H93.2722C93.8351 3.44843 94.302 3.59451 94.6773 3.87782C95.0526 4.16113 95.3318 4.51527 95.5195 4.94467C95.7027 5.36963 95.7987 5.83887 95.7987 6.33909C95.7987 6.83931 95.7071 7.30412 95.5195 7.73351C95.3318 8.15848 95.0526 8.51704 94.6773 8.80035ZM117.058 19.7167H112.175L105.826 12.1381L105.041 13.05V19.7167H101.306V0.314299H105.041V7.32182L111.106 0.314299H116.076L106.669 11.1687L108.942 10.0575L117.058 19.7167ZM130.795 15.6707C131.035 14.7233 131.065 13.7804 130.878 12.8508H130.9C130.786 12.2621 130.577 11.722 130.267 11.2395C129.957 10.757 129.577 10.3364 129.128 9.97344C128.548 9.45994 127.889 9.07481 127.16 8.81806C126.431 8.56131 125.72 8.33997 125.026 8.14962C124.799 8.09208 124.463 8.01239 124.014 7.90615C123.564 7.79991 123.106 7.67154 122.639 7.52103C122.168 7.36609 121.749 7.18017 121.374 6.96326C121.003 6.74635 120.776 6.47632 120.702 6.15316C120.606 5.77247 120.671 5.38291 120.898 4.98451C121.125 4.5861 121.444 4.2541 121.854 3.98849C121.57 3.93094 121.239 3.88668 120.855 3.86012C120.471 3.82913 120.082 3.85569 119.69 3.93094C119.838 3.81585 120.074 3.68747 120.392 3.54582C120.706 3.40416 121.082 3.28907 121.514 3.19168C121.941 3.09429 122.399 3.03674 122.888 3.01904C123.377 3.00133 123.861 3.06773 124.35 3.21824C124.834 3.37317 125.292 3.62992 125.724 3.98849C126.152 4.35148 126.527 4.84285 126.846 5.47145L130.245 4.04604C130.132 3.76273 129.992 3.49712 129.822 3.24923C129.652 3.00575 129.464 2.75786 129.259 2.50996C128.622 1.80611 127.828 1.22621 126.872 0.770252C126.383 0.540062 125.855 0.354139 125.284 0.212483C124.712 0.0708279 124.119 0 123.499 0C123.084 0 122.683 0.0398407 122.29 0.115095C121.898 0.19035 121.514 0.305445 121.138 0.455954C120.597 0.664011 120.078 0.934042 119.58 1.26605C119.087 1.60248 118.651 2.00531 118.276 2.47897C118.066 2.70474 117.883 2.94821 117.726 3.20496C117.569 3.46171 117.434 3.74059 117.32 4.04604C117.207 4.32935 117.119 4.63479 117.054 4.95795C116.984 5.2811 116.954 5.6131 116.954 5.95396C116.954 6.40992 117.002 6.83046 117.106 7.22001C117.207 7.60956 117.364 7.98583 117.569 8.3444C117.756 8.66755 117.97 8.95529 118.215 9.21204C118.459 9.46879 118.712 9.70341 118.974 9.91146C119.214 10.0841 119.458 10.2346 119.703 10.3674C119.943 10.5002 120.187 10.6153 120.431 10.7083C120.859 10.8942 121.295 11.058 121.736 11.1908C122.177 11.3236 122.604 11.4387 123.015 11.5317C123.34 11.6249 123.698 11.7222 124.1 11.8313L124.153 11.8459C124.572 11.9566 124.991 12.0983 125.401 12.2576C125.812 12.4214 126.183 12.6073 126.51 12.8154C126.837 13.0235 127.073 13.2714 127.212 13.5547C127.352 13.838 127.374 14.1656 127.269 14.5241C127.164 14.8871 126.889 15.2944 126.44 15.7503C126.621 15.7827 126.816 15.8121 127.023 15.8433C127.071 15.8506 127.119 15.8579 127.169 15.8654C127.431 15.9053 127.692 15.923 127.954 15.923C127.823 16.0204 127.627 16.1178 127.365 16.224C127.103 16.3302 126.793 16.432 126.44 16.5383C126.087 16.6445 125.698 16.7242 125.275 16.7818C124.856 16.8349 124.42 16.8482 123.97 16.8083H123.944C122.84 16.7685 121.937 16.4453 121.234 15.8389C120.532 15.2324 119.938 14.5108 119.45 13.6742L115.994 15.0686C116.426 16.1133 117.019 16.9987 117.778 17.7202C118.533 18.4418 119.402 18.9907 120.375 19.3714C121.444 19.7919 122.574 20 123.774 20C125.327 20 126.741 19.6503 128.015 18.9464C128.687 18.5702 129.255 18.1009 129.713 17.552C130.171 16.9987 130.533 16.3745 130.795 15.6707Z" fill="white" style="mix-blend-mode:difference"/>
</g>
<defs>
<clipPath id="clip0_63_452">
<rect width="131" height="20" fill="white"/>
</clipPath>
</defs>
</svg>
